<?xml version="1.0" encoding="utf-8"?>
<!-- Generator: Adobe Illustrator 18.0.0, SVG Export Plug-In . SVG Version: 6.00 Build 0)  -->
<!DOCTYPE svg PUBLIC "-//W3C//DTD SVG 1.1//EN" "http://www.w3.org/Graphics/SVG/1.1/DTD/svg11.dtd">
<svg version="1.1" xmlns="http://www.w3.org/2000/svg" xmlns:xlink="http://www.w3.org/1999/xlink" x="0px" y="0px"
	 viewBox="0 0 3840 2160" style="enable-background:new 0 0 3840 2160;" xml:space="preserve">
<g id="Livello_1" style="display:none;">
	<polygon style="display:inline;opacity:0.64;fill:#C6C6C6;" points="0,320 2763,2160 0,2160 	"/>
</g>
<g id="Livello_2" style="opacity:0.62;">
	<linearGradient id="SVGID_1_" gradientUnits="userSpaceOnUse" x1="12.224" y1="1348.8964" x2="3840.0564" y2="1348.8964">
		<stop  offset="0" style="stop-color:#1D1D1B"/>
		<stop  offset="1" style="stop-color:#B2B2B2"/>
	</linearGradient>
	<polygon style="opacity:0.68;fill:url(#SVGID_1_);" points="3840.0564,524.7433 3321.7598,524.9835 12.224,2173.0496 
		3381.6235,2159.9963 	"/>
	<polygon style="fill:#FFFFFF;" points="3533.8445,571.0142 3492.8718,571.0382 3557.4819,517.2479 3592.311,517.2314 	"/>
	<polygon style="fill:#FFFFFF;" points="3090.5813,978.767 3002.9783,978.8928 3254.9058,769.1538 3318.5183,769.0902 	"/>
	<polygon style="fill:#FFFFFF;" points="1994.9103,1986.6621 1791.6368,1987.3795 2784.7009,1160.6168 2893.1082,1160.4202 	"/>
	<polygon style="fill:#FFFFFF;" points="3392.4934,701.0414 3336.6614,701.0893 3450.3894,606.4063 3495.4023,606.3766 	"/>
	<linearGradient id="SVGID_2_" gradientUnits="userSpaceOnUse" x1="3352.8604" y1="508.4742" x2="3352.8604" y2="719.7831">
		<stop  offset="0" style="stop-color:#FFFFFF"/>
		<stop  offset="1" style="stop-color:#FFFFFF;stop-opacity:0"/>
	</linearGradient>
	<rect x="2865.7207" y="508.4741" style="fill:url(#SVGID_2_);" width="974.2794" height="211.3089"/>
	<g>
	</g>
	<g>
	</g>
	<g>
	</g>
	<g>
	</g>
	<g>
	</g>
	<g>
	</g>
</g>
</svg>
