<?xml version="1.0" encoding="utf-8"?>
<!-- Generator: Adobe Illustrator 18.0.0, SVG Export Plug-In . SVG Version: 6.00 Build 0)  -->
<!DOCTYPE svg PUBLIC "-//W3C//DTD SVG 1.1//EN" "http://www.w3.org/Graphics/SVG/1.1/DTD/svg11.dtd">
<svg version="1.1" id="Livello_1" xmlns="http://www.w3.org/2000/svg" xmlns:xlink="http://www.w3.org/1999/xlink" x="0px" y="0px"
	 viewBox="0 0 595.3 841.9" enable-background="new 0 0 595.3 841.9" xml:space="preserve">
<g id="Livello_2">
	<rect x="0.8" y="46.3" fill="#F6F6F6" width="607.7" height="847.4"/>
	<g>
		<g>
			<path fill="#EDEDED" d="M112.3,457.1"/>
			<path fill="#EDEDED" d="M3.1,481.7c602.7-174.9,602.7-174.9,602.7-174.9l0,0"/>
			<polyline fill="#A0A0A0" points="605.7,306.8 605.7,352.3 207.7,892.5 0,892.5 0,482.9 			"/>
		</g>
		<polyline fill="#FFFFFF" points="225.6,509.5 280.8,510.5 335.4,476.3 290.9,474.4 		"/>
		<polyline fill="#FFFFFF" points="305.8,466.3 350.7,466.6 405.2,432.8 372.1,432.8 		"/>
		<polyline fill="#FFFFFF" points="380.7,426 416.1,426 460.9,399.5 433.2,399 		"/>
		<polyline fill="#FFFFFF" points="440.6,394.2 467.9,394.5 506.7,370.4 486.9,370.1 		"/>
		<polyline fill="#FFFFFF" points="496.3,364.8 514.9,365.1 547.3,345.1 534.3,345 		"/>
		<polyline fill="#FFFFFF" points="538.4,342 550.9,342.8 582.7,322.8 576.1,322.2 		"/>
	</g>
</g>
<g id="Livello_1_1_" display="none">
	<g display="inline">
		<g>
			<g>
				<defs>
					<rect id="SVGID_1_" y="82.5" width="599.7" height="835"/>
				</defs>
				<clipPath id="SVGID_2_">
					<use xlink:href="#SVGID_1_"  overflow="visible"/>
				</clipPath>
				<line clip-path="url(#SVGID_2_)" fill="none" x1="3" y1="512.2" x2="597.8" y2="339.6"/>
			</g>
			<g>
				<defs>
					<rect id="SVGID_3_" y="82.5" width="599.7" height="835"/>
				</defs>
				<clipPath id="SVGID_4_">
					<use xlink:href="#SVGID_3_"  overflow="visible"/>
				</clipPath>
				<polygon clip-path="url(#SVGID_4_)" fill="#EDEDED" points="0,513.3 0,917.5 204.9,917.5 597.8,384.5 597.8,339.6 				"/>
			</g>
			<g>
				<defs>
					<rect id="SVGID_5_" y="82.5" width="599.7" height="835"/>
				</defs>
				<clipPath id="SVGID_6_">
					<use xlink:href="#SVGID_5_"  overflow="visible"/>
				</clipPath>
				<polyline clip-path="url(#SVGID_6_)" fill="#FFFFFF" points="222.6,539.6 277.1,540.5 331,506.9 287,504.9 				"/>
			</g>
			<g>
				<defs>
					<rect id="SVGID_7_" y="82.5" width="599.7" height="835"/>
				</defs>
				<clipPath id="SVGID_8_">
					<use xlink:href="#SVGID_7_"  overflow="visible"/>
				</clipPath>
				<polyline clip-path="url(#SVGID_8_)" fill="#FFFFFF" points="301.8,496.9 346,497.2 399.9,463.9 367.2,463.9 				"/>
			</g>
			<g>
				<defs>
					<rect id="SVGID_9_" y="82.5" width="599.7" height="835"/>
				</defs>
				<clipPath id="SVGID_10_">
					<use xlink:href="#SVGID_9_"  overflow="visible"/>
				</clipPath>
				<polyline clip-path="url(#SVGID_10_)" fill="#FFFFFF" points="375.7,457.2 410.6,457.2 454.8,431.1 427.4,430.6 				"/>
			</g>
			<g>
				<defs>
					<rect id="SVGID_11_" y="82.5" width="599.7" height="835"/>
				</defs>
				<clipPath id="SVGID_12_">
					<use xlink:href="#SVGID_11_"  overflow="visible"/>
				</clipPath>
				<polyline clip-path="url(#SVGID_12_)" fill="#FFFFFF" points="434.8,425.8 461.7,426.1 500,402.4 480.5,402.1 				"/>
			</g>
			<g>
				<defs>
					<rect id="SVGID_13_" y="82.5" width="599.7" height="835"/>
				</defs>
				<clipPath id="SVGID_14_">
					<use xlink:href="#SVGID_13_"  overflow="visible"/>
				</clipPath>
				<polyline clip-path="url(#SVGID_14_)" fill="#FFFFFF" points="489.8,396.8 508.1,397.1 540.1,377.4 527.3,377.2 				"/>
			</g>
			<g>
				<defs>
					<rect id="SVGID_15_" y="82.5" width="599.7" height="835"/>
				</defs>
				<clipPath id="SVGID_16_">
					<use xlink:href="#SVGID_15_"  overflow="visible"/>
				</clipPath>
				<polyline clip-path="url(#SVGID_16_)" fill="#FFFFFF" points="531.3,374.3 543.6,375.1 575,355.4 568.5,354.8 				"/>
			</g>
		</g>
	</g>
</g>
</svg>
