<?xml version="1.0" encoding="utf-8"?>
<!-- Generator: Adobe Illustrator 18.0.0, SVG Export Plug-In . SVG Version: 6.00 Build 0)  -->
<!DOCTYPE svg PUBLIC "-//W3C//DTD SVG 1.1//EN" "http://www.w3.org/Graphics/SVG/1.1/DTD/svg11.dtd">
<svg version="1.1" xmlns="http://www.w3.org/2000/svg" xmlns:xlink="http://www.w3.org/1999/xlink" x="0px" y="0px"
	 viewBox="0 0 1920 600" enable-background="new 0 0 1920 600" xml:space="preserve">
<g id="Livello_2">
	<rect x="2.6" y="-908.4" fill="#F6F6F6" width="1960.2" height="2733.3"/>
	<g>
		<g>
			<path fill="#EDEDED" d="M362.3,416.7"/>
			<path fill="#EDEDED" d="M9.9,496C1953.7-68.2,1953.7-68.2,1953.7-68.2l0,0"/>
			<polyline fill="#EDEDED" points="1953.7,-68.2 1953.7,78.7 669.9,1820.9 0,1820.9 0,499.8 			"/>
		</g>
		<polyline fill="#FFFFFF" points="727.6,585.5 905.7,588.7 1081.7,478.7 938.2,472.4 		"/>
		<polyline fill="#FFFFFF" points="986.4,446.2 1131,447.2 1307,338.3 1200.1,338.3 		"/>
		<polyline fill="#FFFFFF" points="1227.9,316.3 1342.1,316.3 1486.6,230.9 1397.1,229.3 		"/>
		<polyline fill="#FFFFFF" points="1421.2,213.6 1509.2,214.7 1634.4,137.1 1570.5,136.1 		"/>
		<polyline fill="#FFFFFF" points="1600.8,118.8 1660.6,119.8 1765.3,55.4 1723.4,54.9 		"/>
		<polyline fill="#FFFFFF" points="1736.5,45.5 1776.8,48.1 1879.5,-16.4 1858,-18.5 		"/>
	</g>
</g>
<g id="Livello_1" display="none">
	<g display="inline">
		<g>
			<defs>
				<rect id="SVGID_1_" y="-791.7" width="1934.2" height="2693.3"/>
			</defs>
			<clipPath id="SVGID_2_">
				<use xlink:href="#SVGID_1_"  overflow="visible"/>
			</clipPath>
			<line clip-path="url(#SVGID_2_)" fill="#EDEDED" x1="9.7" y1="594.3" x2="1928" y2="37.5"/>
			<polygon clip-path="url(#SVGID_2_)" fill="#EDEDED" points="0,598 0,1901.7 661,1901.7 1928,182.5 1928,37.5 			"/>
			<polyline clip-path="url(#SVGID_2_)" fill="#FFFFFF" points="718,682.6 893.8,685.7 1067.5,577.1 925.8,570.9 			"/>
			<polyline clip-path="url(#SVGID_2_)" fill="#FFFFFF" points="973.4,545.1 1116,546.1 1289.7,438.6 1184.3,438.6 			"/>
			<polyline clip-path="url(#SVGID_2_)" fill="#FFFFFF" points="1211.7,416.9 1324.4,416.9 1467,332.6 1378.6,331.1 			"/>
			<polyline clip-path="url(#SVGID_2_)" fill="#FFFFFF" points="1402.4,315.6 1489.3,316.6 1612.8,240.1 1549.7,239.1 			"/>
			<polyline clip-path="url(#SVGID_2_)" fill="#FFFFFF" points="1579.7,222 1638.7,223 1742,159.5 1700.7,158.9 			"/>
			<polyline clip-path="url(#SVGID_2_)" fill="#FFFFFF" points="1713.6,149.6 1753.4,152.2 1854.7,88.6 1833.5,86.6 			"/>
		</g>
	</g>
</g>
</svg>
